<svg width="15" height="11" viewBox="0 0 15 11" fill="none" xmlns="http://www.w3.org/2000/svg">
<path id="Arrow" d="M5.83123 6.50931C5.03824 7.30342 4.27974 8.06417 3.52049 8.82529C2.8706 9.47518 2.22071 10.1241 1.57082 10.772C1.35823 10.9831 1.10178 11.0483 0.812701 10.9632C0.523624 10.8781 0.351528 10.673 0.287789 10.3832C0.226299 10.1012 0.333906 9.86987 0.531123 9.67077C1.43247 8.76993 2.33307 7.86883 3.23292 6.96748C3.90006 6.30059 4.56769 5.63408 5.23583 4.96794C5.60214 4.60425 6.0262 4.60238 6.39101 4.96232C6.89793 5.46223 7.40147 5.9659 7.90163 6.47331C7.95825 6.5303 7.99387 6.60792 8.03399 6.66791L12.2468 2.45136C12.1868 2.44761 12.129 2.44124 12.0709 2.44087C11.5835 2.44087 11.0961 2.44574 10.6087 2.43787C10.2866 2.43299 10.044 2.27664 9.91167 1.98382C9.78532 1.70411 9.82731 1.43266 10.0241 1.1942C10.0948 1.10582 10.1847 1.03484 10.2871 0.986736C10.3895 0.938631 10.5016 0.914685 10.6147 0.916747C11.7815 0.914123 12.9513 0.911873 14.1196 0.917872C14.5609 0.920122 14.8875 1.25532 14.889 1.69587C14.8927 2.85817 14.8927 4.02048 14.889 5.18278C14.889 5.62445 14.5429 5.97015 14.1237 5.9664C13.7045 5.96265 13.3813 5.6327 13.3738 5.1899C13.3667 4.71523 13.372 4.24019 13.372 3.76514V3.5683L13.3037 3.52406C13.2613 3.59087 13.2139 3.65442 13.162 3.71415C11.6702 5.20865 10.1774 6.70202 8.68338 8.19427C8.29457 8.58233 7.87426 8.58308 7.48695 8.19765C6.97829 7.69123 6.4705 7.18319 5.96358 6.67353C5.92009 6.62966 5.88522 6.57567 5.83123 6.50931Z" fill="#04CE00"/>
</svg>
